<svg viewBox="0,0,600,400" width="600" height="400" xmlns="http://www.w3.org/2000/svg" xmlns:xlink="http://www.w3.org/1999/xlink"><svg width="600" height="350"><g class="venn-area venn-circle" data-venn-sets="0"><path style="fill-opacity: 0.25; fill: rgb(31, 119, 180);" d="&#xA;M 286.64371607249024 198.69426634838842 &#xA;m -136.30573365161158 0 &#xA;a 136.30573365161158 136.30573365161158 0 1 0 272.61146730322315 0 &#xA;a 136.30573365161158 136.30573365161158 0 1 0 -272.61146730322315 0"/><text class="label" text-anchor="middle" dy=".35em" x="178" y="198" style="fill: rgb(31, 119, 180);"><tspan x="178" y="198" dy="0.35em">A</tspan></text></g><g class="venn-area venn-circle" data-venn-sets="1"><path style="fill-opacity: 0.25; fill: rgb(255, 127, 14);" d="&#xA;M 328.1955090372228 198.69426634838842 &#xA;m -121.46650854189859 0 &#xA;a 121.46650854189859 121.46650854189859 0 1 0 242.93301708379718 0 &#xA;a 121.46650854189859 121.46650854189859 0 1 0 -242.93301708379718 0"/><text class="label" text-anchor="middle" dy=".35em" x="436" y="198" style="fill: rgb(255, 127, 14);"><tspan x="436" y="198" dy="0.35em">B</tspan></text></g><g class="venn-area venn-circle" data-venn-sets="2"><path style="fill-opacity: 0.25; fill: green;" d="&#xA;M 311.58477409075965 102.46588282233202 &#xA;m -87.46588282233202 0 &#xA;a 87.46588282233202 87.46588282233202 0 1 0 174.93176564466404 0 &#xA;a 87.46588282233202 87.46588282233202 0 1 0 -174.93176564466404 0"/><text class="label" text-anchor="middle" dy=".35em" x="327" y="42" style="fill: green;"><tspan x="327" y="42" dy="0.35em">C</tspan></text></g><g class="venn-area venn-intersection" data-venn-sets="0_1"><path style="fill-opacity: 0;" d="&#xA;M 353.4481958724473 317.506784649118 &#xA;A 121.46650854189859 121.46650854189859 0 1 1 353.4481958724473 79.88174804765885 &#xA;A 136.30573365161158 136.30573365161158 0 0 1 353.4481958724473 317.506784649118"/><text class="label" text-anchor="middle" dy=".35em" x="330" y="254" style="fill: rgb(68, 68, 68);"><tspan x="330" y="254" dy="0.35em"/></text></g><g class="venn-area venn-intersection" data-venn-sets="0_2"><path style="fill-opacity: 0;" d="&#xA;M 228.39145103817856 75.46307449877438 &#xA;A 136.30573365161158 136.30573365161158 0 0 1 397.42065455845915 119.27309205601262 &#xA;A 87.46588282233202 87.46588282233202 0 1 1 228.39145103817856 75.46307449877438"/><text class="label" text-anchor="middle" dy=".35em" x="243" y="88" style="fill: rgb(68, 68, 68);"><tspan x="243" y="88" dy="0.35em"/></text></g><g class="venn-area venn-intersection" data-venn-sets="1_2"><path style="fill-opacity: 0;" d="&#xA;M 228.38972252912367 129.46336517803775 &#xA;A 121.46650854189859 121.46650854189859 0 0 1 399.01617727304426 100.01019646884387 &#xA;A 87.46588282233202 87.46588282233202 0 0 1 228.38972252912367 129.46336517803775"/><text class="label" text-anchor="middle" dy=".35em" x="392" y="103" style="fill: rgb(68, 68, 68);"><tspan x="392" y="103" dy="0.35em"/></text></g><g class="venn-area venn-intersection" data-venn-sets="0_1_2"><path style="fill-opacity: 0;" d="&#xA;M 228.38972252912367 129.46336517803775 &#xA;A 121.46650854189859 121.46650854189859 0 0 1 353.4481958724473 79.88174804765885 &#xA;A 136.30573365161158 136.30573365161158 0 0 1 397.42065455845915 119.27309205601262 &#xA;A 87.46588282233202 87.46588282233202 0 0 1 228.38972252912367 129.46336517803775"/><text class="label" text-anchor="middle" dy=".35em" x="316" y="133" style="fill: rgb(68, 68, 68);"><tspan x="316" y="133" dy="0.35em"/></text></g></svg></svg>